# xmcd CD database file
#
# Track frame offsets:
#	150
#	42823
#	53809
#	68774
#	87389
#	117876
#	136498
#	172070
#	184016
#	197780
#	209932
#
# Disc length: 2977 seconds
#
# Revision: 0
# Processed by: cddbd v1.5.2PL0 Copyright (c) Steve Scherf et al.
# Submitted via: CDex 1.50Beta3
#
DISCID=a70b9f0b
DTITLE=Charles Mingus - Mysterious Blues [CD4]
DYEAR=1900
DGENRE=Jazz
TTITLE0=Hot House
TTITLE1=I get a Kick out of you
TTITLE2=I've got you Under my Skin
TTITLE3=If I had you
TTITLE4=Lock 'em up
TTITLE5=Night and day
TTITLE6=Perdido
TTITLE7=Say it Isn't so
TTITLE8=Weird Nightmare
TTITLE9=Make Believe
TTITLE10=Mingus Fingers
EXTD=
EXTT0=
EXTT1=
EXTT2=
EXTT3=
EXTT4=
EXTT5=
EXTT6=
EXTT7=
EXTT8=
EXTT9=
EXTT10=
PLAYORDER=
